<?xml version="1.0" standalone="no"?>
<!DOCTYPE svg PUBLIC "-//W3C//DTD SVG 20010904//EN"
 "http://www.w3.org/TR/2001/REC-SVG-20010904/DTD/svg10.dtd">
<svg version="1.0" xmlns="http://www.w3.org/2000/svg"
 width="700.000000pt" height="700.000000pt" viewBox="0 0 700.000000 700.000000"
 preserveAspectRatio="xMidYMid meet">
<metadata>
Created by potrace 1.11, written by Peter Selinger 2001-2013
</metadata>
<g transform="translate(0.000000,700.000000) scale(0.100000,-0.100000)"
fill="#000000" stroke="none">
<path d="M6180 6845 c-30 -6 -136 -33 -234 -59 -99 -26 -186 -49 -195 -51 -9
-2 -113 -29 -231 -60 -118 -31 -276 -72 -350 -91 -74 -19 -186 -49 -249 -66
-63 -16 -121 -31 -130 -33 -9 -2 -88 -22 -176 -45 -211 -55 -536 -140 -555
-144 -9 -2 -209 -54 -445 -116 -237 -62 -434 -113 -440 -114 -5 -2 -30 -8 -55
-15 -25 -7 -52 -14 -60 -16 -8 -2 -35 -9 -60 -16 -25 -7 -52 -14 -61 -15 -8
-2 -42 -11 -75 -19 -32 -9 -66 -18 -74 -20 -8 -1 -78 -20 -155 -40 -178 -47
-761 -198 -1085 -281 -52 -14 -102 -27 -110 -29 -8 -2 -112 -29 -230 -60 -118
-30 -267 -69 -330 -86 -63 -16 -126 -32 -140 -35 -49 -10 -156 -45 -187 -62
-53 -29 -138 -104 -172 -154 -58 -83 -84 -162 -89 -269 -3 -71 0 -110 13 -155
37 -130 52 -147 595 -689 602 -600 525 -526 587 -564 243 -150 574 -61 706
190 79 149 77 332 -6 488 -21 39 -87 113 -213 241 -101 101 -181 186 -180 187
2 2 54 17 117 33 275 72 586 152 603 156 10 2 42 10 70 18 28 8 123 33 211 56
220 57 405 105 500 130 44 12 87 23 95 25 8 2 78 20 155 40 77 20 147 38 156
40 10 2 77 19 150 39 74 19 195 51 269 70 305 79 427 110 665 173 137 36 257
67 267 69 10 2 26 6 36 9 9 3 51 13 92 24 75 19 363 95 409 108 19 5 22 3 16
-7 -5 -7 -12 -31 -17 -52 -4 -21 -12 -55 -17 -75 -23 -90 -81 -313 -96 -368
-9 -33 -18 -67 -20 -75 -2 -8 -33 -130 -70 -270 -37 -140 -87 -334 -111 -430
-25 -96 -59 -224 -75 -285 -17 -60 -32 -121 -35 -135 -3 -14 -9 -39 -15 -56
-5 -17 -11 -40 -13 -50 -2 -10 -25 -100 -51 -199 -68 -261 -197 -757 -260
-1000 -29 -115 -75 -289 -100 -385 -25 -96 -47 -184 -50 -195 -2 -11 -15 -60
-29 -110 -14 -49 -26 -91 -26 -92 0 -2 0 -8 0 -14 0 -6 -4 -9 -10 -7 -8 2
-528 519 -949 942 l-94 95 336 336 c185 186 352 360 370 388 53 81 78 170 77
277 0 77 -3 97 -30 175 -50 147 -157 251 -316 308 -62 22 -85 25 -175 23 -111
-3 -181 -23 -264 -74 -48 -29 -2094 -2069 -2136 -2129 -78 -111 -108 -284 -74
-422 76 -313 437 -475 730 -329 64 32 102 67 443 408 l324 323 861 -861 c474
-474 879 -873 900 -888 109 -73 284 -101 407 -64 71 22 139 53 171 80 106 88
163 177 194 299 8 31 37 144 65 251 28 107 52 202 54 210 10 37 140 537 167
640 17 63 57 219 90 345 77 299 110 426 160 615 22 85 42 162 44 171 2 9 33
131 70 270 37 140 68 261 70 269 2 8 20 78 40 155 20 77 38 147 40 155 14 57
102 392 136 520 22 84 42 161 44 170 2 8 31 121 65 250 34 129 63 242 65 250
1 8 71 277 154 596 84 320 154 594 157 610 3 15 7 31 9 34 3 4 7 36 11 71 13
140 -46 297 -153 405 -127 128 -312 181 -493 139z"/>
<path d="M805 1413 c-157 -30 -208 -63 -428 -281 -208 -207 -256 -270 -288
-375 -108 -361 190 -709 561 -657 70 10 154 42 213 81 61 40 401 381 443 444
97 145 108 359 27 514 -89 169 -248 270 -438 276 -38 1 -79 0 -90 -2z"/>
</g>
</svg>
